REM DIRINDEX 1\4,1\2\5,1\2\6,1\3\7,1\3\8
REM DIRNAME cjc124,folder01,folder02,folder03,folder04,folder05,folder06,folder07
TITLE ""
FILE "039_Day20_Check2_Phrases.mp3" MP3
  TRACK 01 AUDIO
    TITLE "0:"
    INDEX 01 00:00:00
  TRACK 02 AUDIO
    TITLE "4:cjc124_1257"
    INDEX 01 00:00:31
  TRACK 03 AUDIO
    TITLE "0:"
    INDEX 01 00:01:46
  TRACK 04 AUDIO
    TITLE "5:cjc124_1258"
    INDEX 01 00:02:02
  TRACK 05 AUDIO
    TITLE "0:"
    INDEX 01 00:03:61
  TRACK 06 AUDIO
    TITLE "6:cjc124_1259"
    INDEX 01 00:04:01
  TRACK 07 AUDIO
    TITLE "0:"
    INDEX 01 00:05:40
  TRACK 08 AUDIO
    TITLE "5:cjc124_1260"
    INDEX 01 00:06:02
  TRACK 09 AUDIO
    TITLE "0:"
    INDEX 01 00:07:72
  TRACK 10 AUDIO
    TITLE "6:cjc124_1261"
    INDEX 01 00:08:11
  TRACK 11 AUDIO
    TITLE "0:"
    INDEX 01 00:09:51
  TRACK 12 AUDIO
    TITLE "5:cjc124_1262"
    INDEX 01 00:10:12
  TRACK 13 AUDIO
    TITLE "0:"
    INDEX 01 00:11:52
  TRACK 14 AUDIO
    TITLE "6:cjc124_1263"
    INDEX 01 00:11:72
  TRACK 15 AUDIO
    TITLE "0:"
    INDEX 01 00:13:16
  TRACK 16 AUDIO
    TITLE "5:cjc124_1264"
    INDEX 01 00:13:53
  TRACK 17 AUDIO
    TITLE "0:"
    INDEX 01 00:15:32
  TRACK 18 AUDIO
    TITLE "6:cjc124_1265"
    INDEX 01 00:15:54
  TRACK 19 AUDIO
    TITLE "0:"
    INDEX 01 00:17:23
  TRACK 20 AUDIO
    TITLE "5:cjc124_1266"
    INDEX 01 00:17:63
  TRACK 21 AUDIO
    TITLE "0:"
    INDEX 01 00:19:15
  TRACK 22 AUDIO
    TITLE "6:cjc124_1267"
    INDEX 01 00:19:34
  TRACK 23 AUDIO
    TITLE "0:"
    INDEX 01 00:21:06
  TRACK 24 AUDIO
    TITLE "5:cjc124_1268"
    INDEX 01 00:21:45
  TRACK 25 AUDIO
    TITLE "0:"
    INDEX 01 00:23:40
  TRACK 26 AUDIO
    TITLE "6:cjc124_1269"
    INDEX 01 00:23:57
  TRACK 27 AUDIO
    TITLE "0:"
    INDEX 01 00:25:37
  TRACK 28 AUDIO
    TITLE "5:cjc124_1270"
    INDEX 01 00:26:05
  TRACK 29 AUDIO
    TITLE "0:"
    INDEX 01 00:27:61
  TRACK 30 AUDIO
    TITLE "6:cjc124_1271"
    INDEX 01 00:28:04
  TRACK 31 AUDIO
    TITLE "0:"
    INDEX 01 00:29:27
  TRACK 32 AUDIO
    TITLE "5:cjc124_1272"
    INDEX 01 00:30:01
  TRACK 33 AUDIO
    TITLE "0:"
    INDEX 01 00:31:67
  TRACK 34 AUDIO
    TITLE "6:cjc124_1273"
    INDEX 01 00:32:11
  TRACK 35 AUDIO
    TITLE "0:"
    INDEX 01 00:33:69
  TRACK 36 AUDIO
    TITLE "5:cjc124_1274"
    INDEX 01 00:34:34
  TRACK 37 AUDIO
    TITLE "0:"
    INDEX 01 00:36:03
  TRACK 38 AUDIO
    TITLE "6:cjc124_1275"
    INDEX 01 00:36:33
  TRACK 39 AUDIO
    TITLE "0:"
    INDEX 01 00:37:69
  TRACK 40 AUDIO
    TITLE "5:cjc124_1276"
    INDEX 01 00:38:33
  TRACK 41 AUDIO
    TITLE "0:"
    INDEX 01 00:40:46
  TRACK 42 AUDIO
    TITLE "6:cjc124_1277"
    INDEX 01 00:40:72
  TRACK 43 AUDIO
    TITLE "0:"
    INDEX 01 00:43:15
  TRACK 44 AUDIO
    TITLE "5:cjc124_1278"
    INDEX 01 00:43:56
  TRACK 45 AUDIO
    TITLE "0:"
    INDEX 01 00:45:55
  TRACK 46 AUDIO
    TITLE "6:cjc124_1279"
    INDEX 01 00:45:71
  TRACK 47 AUDIO
    TITLE "0:"
    INDEX 01 00:47:32
  TRACK 48 AUDIO
    TITLE "5:cjc124_1280"
    INDEX 01 00:47:68
  TRACK 49 AUDIO
    TITLE "0:"
    INDEX 01 00:49:74
  TRACK 50 AUDIO
    TITLE "6:cjc124_1281"
    INDEX 01 00:50:15
  TRACK 51 AUDIO
    TITLE "0:"
    INDEX 01 00:51:52
  TRACK 52 AUDIO
    TITLE "5:cjc124_1282"
    INDEX 01 00:52:14
  TRACK 53 AUDIO
    TITLE "0:"
    INDEX 01 00:54:13
  TRACK 54 AUDIO
    TITLE "6:cjc124_1283"
    INDEX 01 00:54:40
  TRACK 55 AUDIO
    TITLE "0:"
    INDEX 01 00:56:16
  TRACK 56 AUDIO
    TITLE "5:cjc124_1284"
    INDEX 01 00:56:55
  TRACK 57 AUDIO
    TITLE "0:"
    INDEX 01 00:58:26
  TRACK 58 AUDIO
    TITLE "6:cjc124_1285"
    INDEX 01 00:58:42
  TRACK 59 AUDIO
    TITLE "0:"
    INDEX 01 00:59:67
  TRACK 60 AUDIO
    TITLE "5:cjc124_1286"
    INDEX 01 01:00:33
  TRACK 61 AUDIO
    TITLE "0:"
    INDEX 01 01:02:06
  TRACK 62 AUDIO
    TITLE "6:cjc124_1287"
    INDEX 01 01:02:20
  TRACK 63 AUDIO
    TITLE "0:"
    INDEX 01 01:03:55
  TRACK 64 AUDIO
    TITLE "5:cjc124_1288"
    INDEX 01 01:04:17
  TRACK 65 AUDIO
    TITLE "0:"
    INDEX 01 01:06:16
  TRACK 66 AUDIO
    TITLE "6:cjc124_1289"
    INDEX 01 01:06:34
  TRACK 67 AUDIO
    TITLE "0:"
    INDEX 01 01:07:64
